<?xml version="1.0" standalone="no"?>
<!DOCTYPE svg PUBLIC "-//W3C//DTD SVG 20010904//EN"
 "http://www.w3.org/TR/2001/REC-SVG-20010904/DTD/svg10.dtd">
<svg version="1.0" xmlns="http://www.w3.org/2000/svg"
 width="1536.000000pt" height="1024.000000pt" viewBox="0 0 1536.000000 1024.000000"
 preserveAspectRatio="xMidYMid meet">

<g transform="translate(0.000000,1024.000000) scale(0.100000,-0.100000)"
fill="#000000" stroke="none">
<path d="M2710 6926 c-161 -46 -303 -178 -347 -326 -20 -65 -21 -193 -3 -269
16 -67 93 -185 153 -234 229 -187 569 -141 732 99 77 112 97 294 47 434 -48
137 -183 255 -337 296 -62 17 -185 16 -245 0z m211 -10 c126 -23 228 -89 304
-196 58 -83 77 -147 76 -261 0 -109 -19 -179 -67 -250 -91 -137 -229 -209
-399 -209 -205 0 -364 107 -447 300 -28 65 -35 198 -14 278 29 114 143 248
253 299 50 23 156 51 198 52 11 0 54 -6 96 -13z"/>
<path d="M2809 6750 c-7 -19 -26 -38 -52 -52 -43 -24 -87 -86 -87 -123 0 -56
70 -115 155 -129 116 -20 158 -63 124 -129 -20 -39 -51 -57 -102 -57 -54 0
-76 9 -126 52 -31 27 -35 28 -50 14 -14 -15 -14 -19 -1 -44 9 -15 39 -39 67
-54 33 -19 55 -38 63 -59 10 -24 18 -29 39 -27 15 2 30 13 37 26 6 12 34 34
62 48 99 49 121 167 45 236 -10 10 -59 29 -109 43 -87 26 -134 54 -134 83 0 8
14 28 32 44 28 26 38 29 75 25 26 -3 54 -15 73 -31 50 -41 75 -33 64 22 -4 21
-16 35 -43 48 -51 26 -71 44 -71 64 0 17 -19 30 -41 30 -6 0 -15 -13 -20 -30z
m82 -54 c30 -12 79 -57 79 -71 0 -11 -29 -4 -37 8 -27 42 -127 49 -171 12 -69
-58 -39 -131 65 -155 161 -38 209 -94 165 -194 -17 -36 -30 -50 -74 -72 -29
-15 -59 -35 -66 -45 -10 -15 -17 -17 -33 -9 -10 6 -19 17 -19 26 0 8 -8 17
-17 21 -34 12 -93 58 -93 72 0 11 4 11 18 -2 48 -44 135 -59 195 -33 46 19 69
49 74 100 5 42 4 45 -33 69 -22 14 -64 31 -94 37 -101 23 -141 49 -153 99 -7
30 24 94 59 118 14 10 37 28 52 40 23 19 29 20 38 8 6 -8 26 -21 45 -29z"/>
<path d="M2618 5806 c-46 -17 -120 -60 -161 -95 -18 -14 -75 -59 -127 -98 -52
-40 -153 -117 -225 -173 -71 -55 -179 -139 -240 -185 -302 -232 -289 -215
-235 -297 43 -66 87 -100 114 -92 30 9 466 333 533 396 34 32 37 18 9 -48 -39
-95 -111 -279 -166 -424 -28 -74 -68 -180 -90 -235 -99 -253 -120 -357 -86
-424 25 -48 81 -89 132 -97 111 -16 304 25 440 94 23 12 81 37 130 55 261 101
436 186 460 222 16 25 16 28 -17 102 -19 42 -41 81 -50 86 -13 8 -33 3 -83
-21 -37 -18 -69 -32 -72 -32 -2 0 -44 -18 -92 -41 -101 -48 -364 -154 -405
-163 -39 -9 -44 13 -18 82 28 73 76 200 246 652 75 201 154 410 174 465 21 55
49 131 62 168 24 68 24 69 4 83 -46 34 -168 45 -237 20z m206 -17 c14 -7 26
-18 26 -26 0 -17 -32 -112 -80 -238 -22 -55 -59 -154 -84 -220 -72 -192 -196
-521 -236 -630 -21 -55 -54 -144 -74 -197 -21 -54 -38 -110 -39 -125 -2 -24 2
-28 28 -31 38 -4 183 51 443 167 112 50 209 91 216 91 7 0 28 -32 45 -72 26
-57 31 -76 22 -94 -12 -28 -183 -110 -441 -214 -30 -12 -86 -35 -125 -52 -207
-89 -363 -122 -457 -94 -63 18 -91 45 -113 105 -14 39 -13 50 5 131 10 49 33
124 50 167 18 43 47 119 65 168 33 88 67 177 175 455 76 193 89 230 83 230
-12 0 -54 -28 -132 -89 -323 -251 -453 -344 -477 -339 -22 4 -116 126 -112
146 2 8 62 60 133 115 230 175 269 205 335 257 128 101 173 136 225 175 251
192 275 208 342 225 46 11 141 5 177 -11z"/>
<path d="M4953 5509 c-330 -55 -559 -396 -529 -788 22 -285 154 -509 361 -612
91 -45 157 -59 280 -59 165 0 261 31 373 119 63 50 89 95 70 119 -41 54 -133
158 -145 165 -9 6 -37 -5 -83 -33 -74 -45 -144 -70 -195 -70 -50 0 -127 27
-171 59 -170 126 -181 578 -17 722 109 95 232 97 378 3 30 -19 62 -34 72 -34
17 1 135 136 161 186 18 34 5 52 -75 113 -136 102 -301 140 -480 110z m265
-24 c34 -8 84 -26 110 -39 70 -36 172 -114 172 -132 0 -16 -112 -167 -143
-192 -13 -11 -25 -7 -73 24 -162 104 -308 96 -415 -24 -56 -62 -85 -135 -100
-250 -26 -206 33 -405 144 -481 115 -78 249 -72 383 19 25 16 50 30 57 30 14
-1 140 -153 145 -176 2 -8 -14 -32 -35 -53 -102 -96 -210 -140 -363 -148 -186
-10 -325 42 -450 167 -155 154 -220 342 -207 603 7 143 24 211 79 326 73 154
235 286 394 325 78 19 224 19 302 1z"/>
<path d="M3201 5454 c-21 -26 -21 -34 -21 -679 0 -616 1 -654 18 -675 18 -22
25 -23 153 -21 104 1 137 5 149 17 13 12 16 80 20 437 l5 422 21 -45 c12 -25
38 -80 59 -124 142 -302 320 -655 342 -678 l27 -28 166 0 c149 0 169 2 183 18
16 17 17 79 17 685 0 597 -2 667 -16 682 -13 13 -38 15 -152 13 -134 -3 -137
-3 -149 -28 -9 -19 -13 -113 -13 -370 l-1 -345 -115 235 c-64 129 -140 287
-171 350 -82 172 -59 160 -299 160 l-203 0 -20 -26z m450 -29 c14 -22 71 -134
127 -250 55 -115 134 -279 176 -364 l75 -154 1 393 c0 271 4 398 11 407 18 21
247 18 271 -4 17 -15 18 -49 18 -671 0 -596 -2 -657 -17 -674 -14 -16 -34 -18
-171 -18 l-155 0 -29 33 c-16 17 -101 181 -190 362 -88 182 -183 377 -212 435
l-51 105 -3 -454 c-1 -315 -6 -458 -13 -468 -15 -18 -259 -19 -277 -1 -9 9
-12 174 -12 680 0 625 1 668 18 677 10 7 92 10 212 8 l194 -2 27 -40z"/>
<path d="M5641 5454 c-21 -26 -21 -34 -21 -678 0 -574 2 -654 16 -674 14 -21
22 -22 153 -22 121 0 140 2 154 18 15 16 17 49 17 259 l0 241 41 4 c40 4 41 4
74 -57 18 -33 78 -143 134 -245 56 -102 111 -193 122 -202 18 -16 44 -18 183
-18 163 0 186 5 186 37 0 7 -37 74 -82 149 -46 74 -117 192 -159 262 l-77 127
55 29 c72 39 146 121 173 193 26 71 30 231 7 306 -34 106 -113 195 -222 247
-95 45 -144 50 -450 50 l-284 0 -20 -26z m623 1 c154 -33 262 -111 319 -233
30 -63 32 -73 32 -182 0 -110 -1 -118 -33 -182 -37 -75 -97 -134 -170 -169
-26 -12 -48 -23 -50 -25 -2 -1 34 -65 81 -141 46 -76 110 -181 142 -233 32
-52 66 -107 76 -122 23 -32 24 -64 3 -72 -9 -3 -78 -6 -153 -6 -123 0 -141 2
-164 20 -13 11 -69 100 -122 197 -177 321 -171 313 -210 313 -68 0 -65 13 -65
-253 0 -210 -2 -243 -17 -259 -14 -15 -33 -18 -135 -18 -66 0 -128 5 -139 10
-18 10 -19 28 -19 672 0 601 2 663 17 680 15 17 37 18 277 18 190 0 280 -4
330 -15z"/>
<path d="M5950 5046 c0 -151 0 -154 23 -160 37 -10 165 -7 213 5 84 22 133
117 105 208 -22 76 -79 100 -233 101 l-108 0 0 -154z m266 116 c22 -11 45 -32
52 -47 19 -41 15 -115 -8 -153 -30 -49 -72 -62 -195 -62 l-105 0 0 146 0 147
108 -5 c81 -4 117 -10 148 -26z"/>
<path d="M6809 5463 c-12 -13 -14 -134 -17 -673 -2 -653 -2 -657 19 -683 l20
-27 403 0 c332 0 406 2 422 14 17 13 19 27 19 131 0 165 19 155 -296 155
l-249 0 0 135 0 135 194 0 c254 0 246 -5 246 155 0 160 8 155 -246 155 l-194
0 0 109 0 108 53 7 c28 3 138 6 243 6 236 0 227 -5 232 139 3 86 2 99 -18 124
l-21 27 -399 0 c-358 0 -399 -2 -411 -17z m815 -15 c12 -17 16 -48 16 -117 0
-139 18 -131 -275 -131 -212 0 -244 -2 -249 -16 -3 -9 -6 -60 -6 -114 0 -54 3
-105 6 -114 5 -14 33 -16 205 -16 247 0 239 5 239 -133 0 -143 11 -137 -229
-137 -157 0 -201 -3 -210 -14 -8 -9 -11 -59 -9 -152 l3 -139 260 -3 c230 -2
261 -4 273 -19 19 -26 16 -217 -4 -237 -13 -14 -64 -16 -406 -16 -350 0 -393
2 -410 17 -17 15 -18 49 -18 679 0 621 1 664 18 673 11 7 158 11 399 11 l382
0 15 -22z"/>
<path d="M7847 5462 c-16 -18 -17 -61 -17 -673 0 -360 0 -659 0 -666 0 -6 7
-19 16 -27 13 -14 52 -16 277 -16 228 0 272 3 342 20 120 30 197 72 286 157
88 84 144 179 179 303 27 99 29 302 5 405 -56 232 -229 419 -455 491 -45 14
-105 18 -335 21 -268 5 -281 4 -298 -15z m501 -2 c119 -11 204 -40 295 -99 97
-63 168 -146 222 -256 60 -122 79 -223 72 -376 -9 -199 -73 -346 -203 -468
-78 -73 -142 -108 -255 -142 -66 -20 -102 -23 -340 -26 -238 -4 -268 -3 -282
12 -16 15 -17 75 -17 671 0 641 0 654 20 674 19 19 33 20 208 20 103 0 229 -5
280 -10z"/>
<path d="M8140 4779 l0 -422 108 5 c94 4 117 8 173 35 74 34 123 87 156 168
30 72 36 107 35 216 -1 119 -21 195 -70 268 -69 102 -172 151 -319 151 l-83 0
0 -421z m230 386 c89 -32 164 -109 202 -207 25 -66 33 -198 19 -283 -35 -200
-145 -295 -341 -295 l-90 0 0 406 0 407 83 -6 c45 -3 102 -13 127 -22z"/>
<path d="M9096 5459 l-26 -20 0 -663 c0 -630 1 -664 18 -679 15 -14 42 -17
155 -17 131 0 137 1 151 23 13 20 15 109 11 682 l-4 660 -22 18 c-17 14 -42
17 -139 17 -104 0 -120 -2 -144 -21z m282 -11 c17 -17 17 -1329 0 -1346 -8 -8
-53 -12 -137 -12 -102 0 -128 3 -143 17 -17 15 -18 49 -18 662 0 569 2 649 16
669 14 21 22 22 143 22 85 0 131 -4 139 -12z"/>
<path d="M9576 5458 l-26 -23 -1 -665 c0 -624 1 -665 17 -677 16 -12 173 -20
254 -13 59 5 59 8 62 299 l3 266 192 5 c241 6 229 -2 225 153 -3 154 8 147
-233 147 l-189 0 0 114 0 114 31 6 c17 3 121 6 230 6 241 0 229 -7 229 143 0
91 -2 100 -25 122 l-24 25 -360 0 c-359 0 -360 0 -385 -22z m762 -10 c8 -8 12
-49 12 -118 0 -69 -4 -110 -12 -118 -9 -9 -77 -12 -245 -12 l-233 0 0 -114 c0
-63 3 -121 6 -130 5 -14 31 -16 188 -16 241 0 230 6 234 -135 4 -152 14 -145
-229 -145 -104 0 -189 -1 -190 -2 -1 -2 -3 -124 -5 -272 -3 -178 -8 -274 -15
-282 -18 -22 -246 -19 -271 3 -17 15 -18 49 -18 666 0 591 2 652 17 669 15 17
40 18 383 18 271 0 369 -3 378 -12z"/>
<path d="M10492 5464 l-22 -15 0 -476 c0 -306 4 -500 11 -542 16 -90 48 -156
115 -229 64 -71 160 -123 258 -141 85 -16 261 -13 326 4 180 48 295 163 340
340 19 73 20 111 20 561 l0 483 -22 15 c-18 13 -51 16 -154 16 -112 0 -133 -3
-147 -18 -14 -15 -16 -74 -19 -487 -4 -496 -4 -503 -51 -554 -50 -55 -160 -77
-230 -47 -42 18 -82 62 -96 106 -7 23 -12 191 -13 498 l-3 464 -24 19 c-20 16
-40 19 -145 19 -94 0 -127 -4 -144 -16z m285 -16 c4 -7 10 -227 13 -488 4
-376 8 -480 19 -500 61 -112 196 -148 310 -83 33 19 49 38 70 82 l26 56 2 455
c2 250 5 463 7 473 4 15 19 17 145 17 l141 0 10 -26 c17 -43 12 -883 -5 -979
-45 -251 -227 -394 -502 -395 -210 0 -375 79 -460 221 -61 103 -63 121 -63
669 0 273 3 500 7 503 13 13 271 8 280 -5z"/>
<path d="M11685 5455 l-25 -24 0 -654 c0 -615 1 -656 18 -677 17 -21 25 -22
142 -21 114 1 127 3 143 22 16 19 17 56 17 428 l1 406 28 -60 c143 -304 366
-754 383 -772 21 -22 28 -23 183 -23 144 0 164 2 178 18 15 17 17 78 17 676
l0 657 -25 24 c-23 24 -30 25 -138 25 -100 0 -118 -3 -141 -21 l-26 -20 -2
-362 -3 -362 -27 55 c-256 531 -336 686 -362 698 -18 8 -81 12 -182 12 -151 0
-156 -1 -179 -25z m371 -12 c9 -10 45 -76 80 -148 34 -71 120 -249 192 -395
l130 -265 1 399 c1 278 4 403 12 413 16 19 252 19 268 0 17 -21 19 -1321 1
-1341 -10 -13 -39 -16 -164 -16 -146 0 -153 1 -173 23 -11 12 -68 123 -128
247 -59 124 -153 317 -209 430 l-101 205 -3 -439 c-1 -304 -6 -443 -13 -453
-15 -17 -239 -19 -257 -1 -16 16 -17 1309 -2 1339 10 18 23 19 180 19 147 0
171 -2 186 -17z"/>
<path d="M12923 5458 l-23 -24 0 -661 c0 -628 1 -661 18 -677 17 -14 51 -16
278 -17 279 -1 320 4 448 58 312 131 462 533 339 907 -65 195 -221 343 -431
408 -59 19 -98 22 -337 25 l-270 5 -22 -24z m488 2 c380 -37 618 -325 596
-720 -12 -205 -66 -338 -187 -460 -81 -81 -151 -124 -265 -161 -64 -20 -93
-23 -337 -27 -260 -4 -267 -3 -287 17 -21 21 -21 25 -21 664 0 703 -2 681 58
690 54 8 349 6 443 -3z"/>
<path d="M13220 4780 l0 -420 73 0 c137 0 246 42 305 117 73 94 97 182 90 339
-5 129 -32 201 -101 272 -80 82 -156 112 -289 112 l-78 0 0 -420z m233 380
c195 -73 280 -335 188 -581 -26 -68 -90 -135 -161 -168 -43 -19 -76 -26 -147
-29 l-93 -4 0 406 0 406 79 -5 c44 -3 104 -14 134 -25z"/>
</g>
</svg>
