<?xml version="1.0" standalone="no"?>
<!DOCTYPE svg PUBLIC "-//W3C//DTD SVG 20010904//EN"
 "http://www.w3.org/TR/2001/REC-SVG-20010904/DTD/svg10.dtd">
<svg version="1.0" xmlns="http://www.w3.org/2000/svg"
 width="1536.000000pt" height="1024.000000pt" viewBox="0 0 1536.000000 1024.000000"
 preserveAspectRatio="xMidYMid meet">

<g transform="translate(0.000000,1024.000000) scale(0.100000,-0.100000)"
fill="#000000" stroke="none">
<path d="M2742 6915 c-131 -29 -234 -99 -312 -215 -121 -179 -81 -440 91 -587
92 -78 186 -113 309 -113 174 0 309 69 402 207 51 75 69 142 69 256 1 112 -20
179 -81 264 -72 101 -176 167 -299 189 -92 16 -99 16 -179 -1z m112 -141 c9
-3 16 -14 16 -24 0 -20 20 -38 71 -64 27 -13 39 -27 43 -48 11 -55 -14 -63
-64 -22 -19 16 -47 28 -73 31 -37 4 -47 1 -75 -25 -18 -16 -32 -36 -32 -44 0
-29 47 -57 134 -83 94 -27 119 -42 142 -87 19 -36 17 -75 -5 -124 -15 -32 -30
-47 -71 -67 -29 -15 -58 -37 -64 -49 -7 -13 -22 -24 -37 -26 -21 -2 -29 3 -39
27 -8 21 -30 40 -63 59 -28 15 -58 39 -67 54 -13 25 -13 29 1 44 15 14 19 13
50 -14 48 -42 72 -52 119 -52 75 0 127 49 118 111 -4 29 -65 65 -127 74 -87
13 -161 72 -161 128 0 37 42 99 85 125 25 16 48 39 54 55 10 28 18 31 45 21z"/>
<path d="M2647 5800 c-56 -14 -92 -35 -195 -114 -52 -39 -118 -89 -147 -111
-50 -38 -78 -60 -225 -175 -66 -52 -105 -82 -335 -257 -71 -55 -131 -107 -133
-115 -2 -9 19 -44 46 -79 60 -77 74 -79 159 -17 32 24 81 59 107 78 27 19 81
60 120 91 196 153 274 209 289 209 6 0 -7 -37 -83 -230 -108 -278 -142 -367
-175 -455 -18 -49 -47 -125 -65 -168 -17 -43 -40 -118 -50 -167 -18 -81 -19
-92 -5 -131 22 -60 50 -87 113 -105 94 -28 251 5 457 94 39 17 126 54 195 82
227 94 354 157 369 182 12 21 10 31 -19 96 -18 39 -39 72 -46 72 -7 0 -104
-41 -216 -91 -340 -152 -460 -191 -474 -156 -5 15 32 133 67 213 12 27 34 85
49 129 16 44 65 177 110 295 44 118 101 269 126 335 25 66 61 161 80 210 50
134 84 233 84 248 0 31 -130 55 -203 37z"/>
<path d="M4916 5484 c-159 -39 -321 -171 -394 -325 -55 -115 -72 -183 -79
-326 -13 -261 52 -449 207 -603 125 -125 264 -177 450 -167 153 8 261 52 363
148 21 21 37 45 35 53 -5 23 -131 175 -145 176 -7 0 -32 -14 -57 -30 -98 -66
-190 -88 -279 -65 -148 38 -224 145 -248 349 -21 177 16 335 100 428 107 119
246 128 415 25 48 -29 63 -34 74 -24 30 24 142 176 142 191 0 18 -102 96 -172
132 -103 52 -284 69 -412 38z"/>
<path d="M3218 5459 c-17 -9 -18 -52 -18 -677 0 -506 3 -671 12 -680 18 -18
262 -17 277 1 7 10 12 153 13 468 l3 454 56 -115 c31 -63 127 -259 212 -435
86 -176 169 -335 185 -352 l29 -33 156 0 c150 0 156 1 171 22 14 20 16 100 16
674 0 618 -1 652 -18 667 -24 22 -253 25 -271 4 -7 -9 -11 -136 -11 -407 l-1
-393 -75 154 c-42 85 -121 249 -176 364 -56 116 -113 228 -127 250 l-27 40
-194 2 c-120 2 -202 -1 -212 -8z"/>
<path d="M5657 5452 c-15 -17 -17 -79 -17 -680 0 -644 1 -662 19 -672 11 -5
73 -10 139 -10 102 0 121 3 135 18 15 16 17 49 17 259 0 266 -3 253 65 253 39
0 33 8 210 -313 53 -97 109 -186 122 -197 23 -18 41 -20 164 -20 75 0 144 3
153 6 21 8 20 40 -3 72 -10 15 -44 70 -76 122 -190 312 -225 369 -225 373 0 2
22 13 49 26 75 33 136 93 173 169 32 64 33 72 33 182 0 109 -2 119 -32 182
-39 83 -107 152 -189 190 -105 49 -172 58 -460 58 -240 0 -262 -1 -277 -18z
m546 -266 c51 -19 75 -42 88 -87 27 -87 -19 -183 -99 -207 -41 -13 -199 -16
-226 -6 -14 5 -16 29 -16 160 l0 154 108 0 c64 -1 122 -6 145 -14z"/>
<path d="M6828 5459 c-17 -9 -18 -52 -18 -673 0 -630 1 -664 18 -679 17 -15
60 -17 410 -17 342 0 393 2 406 16 20 20 23 211 4 237 -12 15 -43 17 -273 19
l-260 3 -3 139 c-2 93 1 143 9 152 9 11 53 14 210 14 240 0 229 -6 229 137 0
138 8 133 -239 133 -172 0 -200 2 -205 16 -3 9 -6 60 -6 114 0 54 3 105 6 114
5 14 37 16 249 16 293 0 275 -8 275 131 0 69 -4 100 -16 117 l-15 22 -382 0
c-241 0 -388 -4 -399 -11z"/>
<path d="M7860 5450 c-20 -20 -20 -33 -20 -674 0 -582 2 -656 16 -670 23 -23
450 -23 561 0 158 32 256 86 354 191 105 114 157 249 166 431 8 154 -11 254
-72 377 -54 110 -125 193 -222 256 -136 88 -241 108 -575 109 -175 0 -189 -1
-208 -20z m496 -265 c104 -31 194 -115 229 -215 23 -64 34 -189 24 -275 -16
-146 -80 -248 -188 -298 -56 -27 -79 -31 -173 -35 l-108 -5 0 422 0 421 83 0
c46 0 106 -7 133 -15z"/>
<path d="M12973 5463 c-66 -9 -63 19 -63 -690 0 -639 0 -643 21 -664 20 -20
27 -21 287 -17 257 4 270 5 347 31 142 47 239 118 319 231 78 110 114 221 123
386 19 358 -166 620 -497 706 -55 14 -467 28 -537 17z m452 -277 c68 -18 90
-30 148 -85 85 -79 118 -169 118 -321 1 -272 -138 -419 -398 -420 l-73 0 0
420 0 420 78 0 c42 0 100 -6 127 -14z"/>
<path d="M9096 5438 c-14 -20 -16 -100 -16 -669 0 -613 1 -647 18 -662 15 -14
41 -17 143 -17 84 0 129 4 137 12 17 17 17 1329 0 1346 -8 8 -54 12 -139 12
-121 0 -129 -1 -143 -22z"/>
<path d="M9577 5442 c-15 -17 -17 -78 -17 -669 0 -617 1 -651 18 -666 15 -14
41 -17 139 -17 86 0 124 4 131 13 7 8 12 106 13 272 1 143 4 266 6 273 4 9 52
12 193 12 242 0 232 -6 228 145 -4 141 7 135 -234 135 -157 0 -183 2 -188 16
-3 9 -6 67 -6 130 l0 114 233 0 c168 0 236 3 245 12 8 8 12 49 12 118 0 69 -4
110 -12 118 -9 9 -107 12 -378 12 -343 0 -368 -1 -383 -18z"/>
<path d="M10496 5444 c-3 -9 -6 -235 -6 -503 0 -442 2 -493 18 -553 47 -167
175 -278 360 -314 259 -49 495 36 590 214 64 121 65 129 70 647 2 312 0 479
-7 498 l-11 27 -141 0 c-126 0 -141 -2 -145 -17 -2 -10 -5 -223 -7 -473 l-2
-455 -26 -56 c-21 -44 -37 -63 -70 -82 -114 -65 -249 -29 -310 83 -11 20 -15
124 -19 500 -3 261 -9 481 -13 488 -6 8 -46 12 -142 12 -112 0 -134 -2 -139
-16z"/>
<path d="M11690 5441 c-15 -30 -14 -1323 2 -1339 18 -18 242 -16 257 1 7 10
12 149 13 453 l3 439 103 -210 c57 -115 151 -309 210 -430 58 -121 114 -230
125 -242 20 -22 27 -23 172 -23 104 0 155 4 163 12 17 17 17 1329 0 1346 -18
18 -252 17 -267 -1 -7 -9 -11 -140 -12 -413 l-1 -399 -84 170 c-46 94 -133
272 -193 396 -61 125 -117 234 -126 243 -14 13 -43 16 -185 16 -157 0 -170 -1
-180 -19z"/>
</g>
</svg>
