<?xml version="1.0" standalone="no"?>
<!DOCTYPE svg PUBLIC "-//W3C//DTD SVG 20010904//EN"
 "http://www.w3.org/TR/2001/REC-SVG-20010904/DTD/svg10.dtd">
<svg version="1.0" xmlns="http://www.w3.org/2000/svg"
 width="357.000000pt" height="367.000000pt" viewBox="0 0 357.000000 367.000000"
 preserveAspectRatio="xMidYMid meet">

<g transform="translate(0.000000,367.000000) scale(0.100000,-0.100000)"
fill="#000000" stroke="none">
<path d="M350 3656 c-70 -15 -197 -89 -219 -127 -9 -16 -23 -31 -31 -34 -8 -3
-24 -20 -35 -37 -67 -112 -65 -60 -65 -1648 l1 -1425 23 -71 c48 -145 143
-249 269 -295 50 -18 103 -19 1493 -19 l1442 0 55 25 c30 14 58 32 61 40 3 8
14 15 25 15 11 0 47 27 80 61 55 55 79 94 110 174 8 22 11 420 9 1526 l-3
1495 -37 75 c-62 126 -164 211 -291 245 -71 19 -2801 19 -2887 0z m2900 -165
c94 -49 149 -125 169 -236 14 -76 15 -2655 1 -2799 -6 -63 -17 -115 -30 -142
-27 -55 -87 -109 -159 -143 l-56 -26 -1395 0 -1395 0 -50 26 c-27 15 -58 36
-68 47 -18 20 -16 21 115 95 261 146 263 147 306 147 22 0 165 -35 319 -78
l278 -77 370 3 c300 2 380 5 425 18 118 34 162 67 438 334 145 140 353 339
461 442 222 212 251 252 251 347 -1 72 -26 127 -80 173 -72 62 -164 70 -265
22 -42 -20 -425 -287 -520 -362 l-29 -23 -43 50 c-24 27 -64 60 -90 73 -48 23
-51 23 -408 23 l-360 1 -150 58 c-82 32 -184 64 -225 72 -149 27 -318 13 -427
-36 -26 -11 -142 -72 -258 -135 -115 -62 -214 -114 -218 -114 -4 -1 -7 453 -7
1008 0 1126 -3 1071 70 1154 47 53 110 86 183 97 29 4 671 7 1427 6 l1375 -1
45 -24z m-193 -1993 c46 -43 27 -82 -94 -198 -48 -46 -137 -132 -198 -190
-581 -557 -613 -586 -702 -621 -56 -23 -69 -24 -388 -27 -374 -3 -296 -14
-727 102 -122 33 -228 56 -257 56 -69 0 -121 -20 -258 -97 -241 -135 -261
-145 -270 -131 -4 7 -9 105 -11 218 -1 113 -3 260 -5 327 l-2 122 85 47 c274
153 467 256 508 270 61 22 255 25 332 5 30 -8 118 -39 195 -70 l140 -56 363
-5 364 -5 29 -33 c61 -68 23 -164 -71 -183 -25 -4 -235 -8 -467 -9 l-423 0 0
-75 0 -76 473 3 c455 3 474 4 517 24 55 25 135 110 144 150 7 33 9 34 263 217
308 222 363 257 401 257 23 0 44 -8 59 -22z"/>
<path d="M1627 3264 c-304 -65 -536 -277 -629 -574 -20 -66 -23 -95 -23 -235
0 -140 3 -169 23 -235 118 -373 459 -618 832 -597 122 7 196 25 298 73 222
102 395 307 459 544 25 91 24 339 0 430 -67 245 -273 473 -505 557 -144 53
-316 67 -455 37z m233 -294 c0 -56 2 -60 23 -60 34 0 128 -47 165 -83 32 -30
72 -95 72 -115 0 -9 -103 -42 -132 -42 -9 0 -21 14 -29 31 -12 31 -83 74 -101
63 -4 -3 -8 -58 -8 -124 l0 -118 72 -22 c143 -43 211 -95 237 -179 15 -51 14
-87 -4 -147 -29 -97 -128 -175 -247 -192 l-53 -7 -3 -53 -3 -53 -57 3 -57 3
-5 49 -5 48 -66 17 c-109 27 -178 88 -213 187 l-14 42 66 17 c46 13 67 15 70
7 7 -23 48 -76 72 -93 14 -11 40 -22 58 -25 l32 -6 0 135 0 135 -45 11 c-124
31 -217 102 -231 176 -10 54 1 156 20 193 41 80 107 122 229 147 25 5 27 8 27
60 l0 55 65 0 65 0 0 -60z"/>
<path d="M1685 2751 c-89 -40 -86 -153 5 -191 17 -7 33 -10 36 -8 2 3 3 53 2
111 l-3 106 -40 -18z"/>
<path d="M1856 2353 c-3 -4 -6 -60 -6 -125 l0 -118 28 6 c78 19 117 59 117
120 0 33 -6 49 -25 67 -27 26 -104 60 -114 50z"/>
</g>
</svg>
