<?xml version="1.0" standalone="no"?>
<!DOCTYPE svg PUBLIC "-//W3C//DTD SVG 20010904//EN"
 "http://www.w3.org/TR/2001/REC-SVG-20010904/DTD/svg10.dtd">
<svg version="1.0" xmlns="http://www.w3.org/2000/svg"
 width="291.000000pt" height="426.000000pt" viewBox="0 0 291.000000 426.000000"
 preserveAspectRatio="xMidYMid meet">

<g transform="translate(0.000000,426.000000) scale(0.100000,-0.100000)"
fill="#ffffff" stroke="none">
<path d="M1781 4014 c-94 -25 -171 -73 -256 -159 -91 -91 -134 -166 -165 -289
-63 -248 39 -518 250 -661 107 -73 197 -100 330 -100 159 0 249 32 373 133 82
67 159 178 190 277 30 95 32 311 4 395 -66 193 -236 356 -423 404 -77 20 -230
20 -303 0z m189 -214 c4 -8 12 -28 16 -45 7 -22 20 -34 49 -45 65 -25 83 -38
116 -86 37 -54 30 -64 -39 -64 -38 0 -48 5 -79 40 -31 35 -42 40 -78 40 -85 0
-125 -28 -125 -88 0 -44 28 -61 145 -87 179 -41 230 -85 222 -192 -5 -77 -40
-123 -124 -164 -64 -32 -68 -36 -71 -71 l-3 -38 -49 0 -49 0 -8 41 c-8 38 -11
41 -63 59 -62 21 -140 94 -140 131 0 20 4 21 55 17 42 -4 62 -11 83 -31 38
-37 79 -50 132 -42 58 9 100 46 100 91 0 42 -37 64 -167 99 -162 43 -198 76
-198 178 0 81 28 119 122 167 53 28 69 41 71 60 6 45 64 67 82 30z"/>
<path d="M1579 2616 c-57 -15 -94 -41 -194 -135 -234 -222 -652 -555 -878
-700 -93 -60 -107 -92 -67 -156 24 -39 68 -59 109 -50 32 7 158 92 356 241
183 138 225 167 231 161 6 -6 -29 -108 -143 -412 -171 -455 -294 -826 -323
-967 -44 -215 -10 -350 103 -411 37 -19 56 -22 157 -21 98 1 127 5 195 28 166
57 436 229 672 428 44 38 84 76 87 84 20 53 -15 114 -66 114 -14 0 -43 -14
-64 -30 -87 -68 -255 -174 -349 -221 -84 -43 -106 -50 -140 -46 -51 7 -65 28
-65 96 0 100 21 170 272 931 196 595 253 773 272 842 34 123 12 207 -61 227
-45 13 -46 13 -104 -3z"/>
</g>
</svg>
