<?xml version="1.0" standalone="no"?>
<!DOCTYPE svg PUBLIC "-//W3C//DTD SVG 20010904//EN"
 "http://www.w3.org/TR/2001/REC-SVG-20010904/DTD/svg10.dtd">
<svg version="1.0" xmlns="http://www.w3.org/2000/svg"
 width="299.000000pt" height="250.000000pt" viewBox="0 0 299.000000 250.000000"
 preserveAspectRatio="xMidYMid meet">

<g transform="translate(0.000000,250.000000) scale(0.100000,-0.100000)"
fill="#000000" stroke="none">
<path d="M1517 2313 c-4 -3 -7 -28 -7 -54 0 -45 -2 -49 -27 -54 -126 -26 -181
-63 -224 -151 -28 -57 -31 -70 -27 -137 6 -121 50 -169 208 -222 l65 -22 3
-131 c3 -144 3 -143 -55 -121 -38 14 -72 47 -89 88 -15 36 -10 35 -106 10 -47
-12 -49 -34 -9 -104 47 -82 108 -125 208 -145 l53 -11 0 -50 0 -50 63 3 62 3
0 44 0 45 65 16 c150 38 233 119 247 240 16 134 -59 224 -232 276 -33 10 -66
22 -72 27 -9 7 -13 44 -13 124 l0 116 32 -7 c34 -7 78 -41 78 -62 0 -29 26
-33 93 -12 37 11 67 24 67 29 0 25 -44 90 -83 125 -42 37 -122 74 -159 74 -15
0 -18 10 -18 60 l0 60 -58 0 c-32 0 -62 -3 -65 -7z m-7 -368 c0 -116 -2 -119
-58 -85 -41 25 -56 58 -48 104 7 38 55 86 87 86 18 0 19 -8 19 -105z m195
-324 c49 -22 65 -40 71 -83 9 -58 -46 -120 -116 -129 l-25 -4 -3 118 c-3 132
-3 133 73 98z"/>
<path d="M2784 1286 c-27 -13 -119 -74 -204 -135 -85 -61 -210 -151 -277 -199
-105 -75 -125 -94 -145 -136 -26 -56 -103 -129 -156 -148 -29 -10 -143 -13
-502 -13 l-465 0 -3 73 -3 72 440 0 c506 0 505 0 541 75 19 40 20 46 7 77 -8
19 -27 44 -42 56 -27 22 -34 22 -365 22 -376 0 -363 -2 -552 76 -176 72 -367
92 -490 49 -21 -7 -157 -77 -303 -156 l-265 -144 0 -348 0 -348 77 42 c43 24
125 69 183 101 58 32 130 68 160 79 84 32 154 22 455 -63 l260 -73 350 0 c343
0 351 0 407 23 73 30 137 78 252 189 50 49 231 223 402 386 171 163 323 310
338 327 32 39 34 80 4 107 -36 32 -52 33 -104 9z"/>
</g>
</svg>
